<?xml version="1.0" encoding="utf-8"?>
<!-- Generator: Adobe Illustrator 16.0.0, SVG Export Plug-In . SVG Version: 6.00 Build 0)  -->
<!DOCTYPE svg PUBLIC "-//W3C//DTD SVG 1.1//EN" "http://www.w3.org/Graphics/SVG/1.1/DTD/svg11.dtd">
<svg version="1.1" id="Layer_1" xmlns="http://www.w3.org/2000/svg" xmlns:xlink="http://www.w3.org/1999/xlink" x="0px" y="0px"
	 width="20px" height="20px" viewBox="62.833 0 20 20" enable-background="new 62.833 0 20 20" xml:space="preserve">
<path fill="#CCCCCC" d="M16,9V6c0-3.313-2.688-6-6-6S4,2.687,4,6h2c0-2.211,1.791-4,4-4s4,1.789,4,4v3h-4H6H4H3v8.914
	C3,17.914,3,20,5.076,20c0.727,0,2.746,0,4.924,0c2.176,0,4.195,0,4.922,0C17,20,17,17.914,17,17.914V9H16z"/>
<g>
	<path fill="#999999" d="M10,0C6.688,0,4,2.687,4,6h2c0-2.211,1.791-4,4-4s4,1.789,4,4v3h2V6C16,2.687,13.314,0,10,0L10,0z"/>
</g>
<path fill="none" stroke="#999999" stroke-linecap="round" stroke-miterlimit="10" d="M13.553,16.4
	c0.232-0.514,0.361-1.084,0.361-1.686c0-2.256-1.83-4.086-4.086-4.086c-0.063,0-0.123,0.002-0.184,0.004"/>
<polygon fill="#999999" points="26.967,10 26.678,13.813 30.498,15.891 30.936,13.656 29.779,11.172 28.389,10.234 "/>
<polygon fill="#999999" points="9.516,10.766 7.563,11.484 6.375,12.828 5.891,14.313 6.047,15.891 6.875,17.141 8.156,18.172 
	9.219,18.453 10.75,18.453 11.922,17.891 12.852,16.961 13.047,16.5 9.646,14.719 "/>
<g>
	<line fill="none" x1="13.563" y1="16.379" x2="13.563" y2="16.379"/>
	<line fill="none" x1="9.646" y1="10.65" x2="9.646" y2="10.65"/>
	<line fill="none" stroke="#666666" stroke-linecap="round" stroke-miterlimit="10" x1="9.658" y1="14.725" x2="9.658" y2="10.65"/>
	
		<line fill="none" stroke="#666666" stroke-linecap="round" stroke-miterlimit="10" x1="9.658" y1="14.725" x2="11.725" y2="15.727"/>
</g>
<path fill="none" stroke="#666666" stroke-linecap="round" stroke-miterlimit="10" d="M13.553,16.4
	c-0.643,1.418-2.068,2.402-3.725,2.402c-2.258,0-4.088-1.83-4.088-4.088c0-2.195,1.732-3.986,3.904-4.082"/>
<path fill="#CCCCCC" d="M78.833,9V6c0-3.313-2.688-6-6-6s-6,2.687-6,6h2c0-2.211,1.791-4,4-4s4,1.789,4,4v3h-4h-4h-2h-1v8.914
	c0,0,0,2.086,2.076,2.086c0.727,0,2.746,0,4.924,0c2.176,0,4.195,0,4.922,0c2.078,0,2.078-2.086,2.078-2.086V9H78.833z"/>
<g>
	<path fill="#999999" d="M72.833,0c-3.313,0-6,2.687-6,6h2c0-2.211,1.791-4,4-4s4,1.789,4,4v3h2V6C78.833,2.687,76.147,0,72.833,0
		L72.833,0z"/>
</g>
<g>
	<g>
		
			<line fill="none" stroke="#666666" stroke-width="2" stroke-linecap="round" stroke-miterlimit="10" x1="69.259" y1="16.125" x2="69.259" y2="16.125"/>
		
			<line fill="none" stroke="#666666" stroke-width="2" stroke-linecap="round" stroke-miterlimit="10" stroke-dasharray="0,3.5737" x1="72.832" y1="16.125" x2="74.619" y2="16.125"/>
		
			<line fill="none" stroke="#666666" stroke-width="2" stroke-linecap="round" stroke-miterlimit="10" x1="76.406" y1="16.125" x2="76.406" y2="16.125"/>
	</g>
</g>
</svg>
